<?xml version="1.0" standalone="no"?>
<!DOCTYPE svg PUBLIC "-//W3C//DTD SVG 20010904//EN"
 "http://www.w3.org/TR/2001/REC-SVG-20010904/DTD/svg10.dtd">
<svg version="1.0" xmlns="http://www.w3.org/2000/svg"
 width="184.000000pt" height="163.000000pt" viewBox="0 0 184.000000 163.000000"
 preserveAspectRatio="xMidYMid meet">

<g transform="translate(0.000000,163.000000) scale(0.100000,-0.100000)"
fill="#000000" stroke="none">
<path d="M750 1521 l-175 -48 -3 -199 c-1 -109 -4 -205 -7 -212 -3 -9 -27 -1
-84 27 l-79 40 -111 -52 -111 -52 0 -391 0 -391 109 -51 110 -52 106 50 c58
27 110 50 115 50 10 0 134 -57 223 -101 l57 -29 0 44 c0 36 -4 46 -20 51 -14
4 -20 15 -20 36 0 27 2 29 20 19 18 -10 20 -8 20 18 0 21 -6 31 -20 35 -15 4
-20 14 -20 36 0 29 2 31 20 21 18 -9 20 -8 20 14 0 15 -8 30 -20 36 -12 6 -20
21 -20 36 0 21 4 24 20 19 16 -5 20 -2 20 14 0 12 5 21 11 21 24 0 49 -22 49
-43 0 -23 17 -47 32 -47 4 0 8 11 8 25 0 23 2 24 25 13 l25 -11 0 -204 c0
-163 3 -203 13 -203 8 0 60 22 116 50 93 45 109 50 172 50 63 0 78 4 174 52
l105 53 0 387 c0 214 -2 388 -3 388 -2 0 -42 -19 -88 -41 -129 -63 -123 -62
-179 -34 l-50 25 0 -25 c0 -28 -3 -29 -31 -15 -11 6 -19 21 -19 35 0 17 -9 29
-30 40 -17 9 -28 20 -25 24 3 5 30 19 60 32 l55 23 -2 194 -3 195 -180 48
c-99 27 -187 49 -195 48 -8 0 -94 -22 -190 -48z m-47 -88 c4 -2 7 -20 7 -39 0
-23 5 -34 14 -34 8 0 21 -3 30 -6 13 -5 16 1 16 25 0 32 7 36 48 25 17 -5 22
-14 22 -41 0 -33 -1 -34 -35 -27 -34 6 -35 5 -35 -23 0 -25 5 -32 33 -39 27
-8 33 -15 35 -43 3 -33 3 -33 -32 -27 -35 7 -36 6 -36 -24 0 -32 -2 -33 -37
-24 -18 5 -23 14 -23 39 0 28 -5 35 -30 44 -29 9 -30 9 -30 -18 0 -37 -6 -41
-41 -29 -24 8 -29 15 -29 44 0 38 -1 38 34 24 25 -9 26 -8 26 24 0 30 -4 35
-30 41 -26 6 -30 11 -30 42 0 33 1 34 30 28 28 -6 30 -5 30 24 0 29 2 31 28
25 15 -4 30 -9 35 -11z m-403 -463 c31 -16 40 -26 40 -46 0 -17 -4 -24 -12
-21 -7 3 -30 12 -50 21 l-38 16 0 -25 c0 -18 7 -28 25 -35 23 -9 25 -15 25
-65 0 -59 -1 -60 -31 -45 -16 9 -19 7 -19 -14 0 -24 -2 -25 -25 -14 -17 7 -25
19 -25 36 0 21 3 23 25 18 21 -5 25 -3 25 17 0 16 -9 28 -25 35 -22 10 -25 18
-25 63 0 50 1 51 25 45 20 -5 25 -3 25 14 0 25 11 25 60 0z m941 -20 c11 -6
19 -21 19 -36 0 -16 8 -28 25 -36 18 -8 25 -19 25 -40 0 -28 -13 -37 -25 -18
-11 18 -25 10 -25 -15 0 -23 -2 -24 -25 -13 -18 8 -25 19 -25 40 0 25 2 27 19
18 28 -14 31 -13 31 13 0 16 -9 28 -25 35 -17 8 -25 20 -25 37 0 28 3 29 31
15z m-72 -295 c50 -25 96 -45 101 -45 31 0 -2 -23 -98 -67 l-108 -50 -107 50
c-59 28 -107 53 -107 56 0 9 190 99 211 100 9 1 57 -19 108 -44z"/>
<path d="M650 1345 c0 -28 4 -33 30 -38 26 -6 30 -11 30 -41 0 -26 5 -35 23
-40 35 -9 37 -8 37 23 0 23 -6 31 -29 39 -23 8 -30 17 -33 43 -2 26 -9 34 -30
40 -26 7 -28 5 -28 -26z"/>
<path d="M970 639 c-95 -46 -97 -39 23 -93 l72 -33 90 43 90 43 -88 40 c-48
23 -91 41 -95 41 -5 0 -46 -18 -92 -41z"/>
<path d="M1329 1072 c-41 -20 -77 -40 -80 -44 -2 -4 34 -26 81 -49 l85 -40 89
42 88 43 -83 42 c-46 24 -88 43 -94 43 -5 0 -44 -17 -86 -37z"/>
<path d="M910 436 c0 -15 8 -30 20 -36 18 -9 20 -8 20 14 0 15 -8 30 -20 36
-18 9 -20 8 -20 -14z"/>
<path d="M958 356 c-4 -18 1 -27 19 -35 21 -10 23 -8 23 14 0 14 -8 29 -19 34
-16 9 -20 7 -23 -13z"/>
<path d="M910 326 c0 -15 8 -30 20 -36 18 -9 20 -8 20 14 0 15 -8 30 -20 36
-18 9 -20 8 -20 -14z"/>
<path d="M960 249 c0 -18 -4 -20 -25 -15 -22 6 -25 3 -25 -19 0 -14 2 -25 4
-25 2 0 11 -3 20 -6 12 -4 16 0 16 16 0 19 4 21 25 16 21 -6 25 -3 25 18 0 13
-7 27 -16 30 -23 9 -24 8 -24 -15z"/>
<path d="M960 142 c0 -21 6 -31 20 -35 16 -4 20 0 20 19 0 13 -9 28 -20 34
-18 10 -20 8 -20 -18z"/>
</g>
</svg>
